<?xml version="1.0" standalone="no"?>
<!DOCTYPE svg PUBLIC "-//W3C//DTD SVG 20010904//EN"
 "http://www.w3.org/TR/2001/REC-SVG-20010904/DTD/svg10.dtd">
<svg version="1.0" xmlns="http://www.w3.org/2000/svg"
 width="128.000000pt" height="128.000000pt" viewBox="0 0 128.000000 128.000000"
 preserveAspectRatio="xMidYMid meet">
<metadata>
Created by potrace 1.14, written by Peter Selinger 2001-2017
</metadata>
<g transform="translate(0.000000,128.000000) scale(0.100000,-0.100000)"
fill="#000000" stroke="none">
<path d="M568 1240 c-46 -14 -104 -61 -138 -111 -7 -11 -51 1 -45 11 3 5 -3 6
-13 3 -11 -2 -25 1 -33 9 -8 7 -23 14 -34 16 -11 2 -27 6 -35 9 -19 8 -27 10
-41 12 -5 0 -7 6 -3 13 4 7 3 8 -4 4 -6 -4 -28 0 -48 9 -46 19 -44 19 -44 -5
0 -11 -7 -20 -16 -20 -8 0 -13 4 -10 9 4 5 -2 7 -11 5 -16 -5 -18 -19 -17
-144 1 -136 1 -140 -22 -155 -29 -19 -55 -77 -51 -113 5 -39 37 -102 52 -102
19 0 23 -23 23 -133 0 -54 3 -102 8 -106 5 -5 65 -25 134 -46 271 -81 281 -84
275 -108 -5 -20 -12 -63 -14 -78 -1 -4 -12 -10 -26 -13 -36 -9 -77 -68 -69
-100 5 -21 15 -27 57 -36 104 -23 178 20 140 80 -9 14 -22 29 -30 33 -13 8
-12 21 2 88 6 26 8 26 48 17 29 -6 54 -6 80 2 22 6 40 10 42 8 2 -2 10 -25 17
-52 14 -48 14 -51 -8 -70 -24 -23 -37 -65 -26 -82 22 -34 148 -40 182 -9 30
27 10 84 -40 110 -17 9 -30 12 -31 8 -2 -21 -26 66 -25 92 1 29 16 38 106 60
8 2 80 24 160 48 l145 44 3 114 c2 104 5 116 26 139 23 24 44 81 40 108 -1 6
-2 20 -3 31 0 10 -14 32 -31 49 l-30 32 0 141 c0 121 -2 140 -15 135 -9 -3
-16 1 -16 9 -1 8 -3 20 -4 25 -1 6 -3 13 -4 16 0 4 -8 1 -16 -6 -8 -6 -18 -9
-24 -6 -5 3 -11 1 -13 -4 -2 -6 -10 -12 -18 -14 -13 -3 -45 -15 -115 -46 -38
-16 -60 -23 -67 -22 -5 1 -8 -3 -8 -8 0 -5 -8 -10 -18 -10 -10 0 -23 -5 -29
-11 -7 -7 -15 -2 -27 16 -25 39 -73 81 -111 99 -35 17 -112 20 -157 6z"/>
</g>
</svg>
